<svg viewBox="0 0 262.78 232.53" xmlns="http://www.w3.org/2000/svg"><g fill="#0078ae"><path d="m26.83 9 29.67 21.72s4.09 2.92 6.07 0c0 0 3.27-2 .58-6.07s-30.6-23.25-30.6-23.25-3.85-3.15-7.36 0 1.64 7.6 1.64 7.6z"/><path d="m6 84.86 36.77-.47s5-.12 4.85-3.65c0 0 1.42-3.55-3.18-5.21s-38.44-.18-38.44-.18-5-.2-5.88 4.42 5.88 5.09 5.88 5.09z"/><path d="m33.68 157.85 29.61-21.85s4-3 1.82-5.8c0 0-.92-3.72-5.62-2.38s-31.34 22.24-31.34 22.24-4.16 2.73-2.2 7 7.73.79 7.73.79z"/><path d="m234.67 150.35-29.27-22.26s-4-3-6.07-.11c0 0-3.31 1.93-.69 6.06s30.18 23.79 30.18 23.79 3.8 3.22 7.36.13-1.51-7.61-1.51-7.61z"/><path d="m256.9 74.87-36.77-.19s-5 0-4.92 3.56c0 0-1.48 3.53 3.09 5.26s38.42.87 38.42.87 5 .29 6-4.32-5.82-5.18-5.82-5.18z"/><path d="m230.5 1.39-30 21.26s-4.06 3-1.92 5.76c0 0 .85 3.73 5.58 2.48s31.73-21.66 31.73-21.66 4.21-2.66 2.33-7-7.72-.84-7.72-.84z"/><path d="m126.41 29s-43.72 1.67-45.36 47.61c0 0 .77 3.57 4.15 4s4.73-3.47 4.73-3.47-.48-36.19 38.12-39.28c0 0 4.54.68 4.54-4.73s-6.18-4.13-6.18-4.13z"/><path d="m102.28 205.38v11.94s-.16 2.15 2.55 3.5l26 11.7 27.02-12.52s1.91-.72 2-3.82 0-10.75 0-10.75.48-4.78-4.3-4.7a4 4 0 0 0 -4.5 4.46v8.46l-19.93 9.56-19.52-9.58-.2-8s.16-5-4.14-4.95c-.04-.01-4.98-1.03-4.98 4.7z"/><path d="m131.08 185h-31.16a2.49 2.49 0 0 1 -2.54-2.54v-3.86s-.67-1.87 2.8-1.87h30.89v-8.81h-33.74s-8.63 2-8.76 8.55v8.53s-.4 8.28 8.68 8.55h33.83z"/><path d="m128.56 185 31.16.23a2.49 2.49 0 0 0 2.56-2.52v-3.87s.72-1.84-2.77-1.84l-30.89-.23.07-8.81 33.75.25s8.61 2.07 8.7 8.61l-.06 8.55s.34 8.28-8.74 8.48l-33.83-.25z"/><path d="m131.59 7.38v8.62s59.12 1.88 58.64 63.63c0 0 1.67 12-9.66 29.44 0 0-19.91 22.06-20.15 44 0 0 .24 8.94 1.91 10.25a4.8 4.8 0 0 0 4.89 1.67c3-.83 2.91-4.53 2.91-4.53a43.83 43.83 0 0 1 -.65-8.23s3-17.41 10.61-27.66c0 0 23.37-25 18.24-59s-32.06-48.17-32.06-48.17-10.94-9.06-34.68-10.02z"/><path d="m131.59 7.37v8.63s-59.16 1.61-58.96 63.36c0 0-1.72 12 9.53 29.48 0 0 19.81 22.14 20 44.08 0 0-.28 8.94-2 10.24a4.8 4.8 0 0 1 -4.9 1.65c-3-.85-2.89-4.54-2.89-4.54a43.83 43.83 0 0 0 .68-8.22s-2.9-17.42-10.49-27.7c0 0-23.26-25.14-18-59.09s32.28-48 32.28-48 11.01-9.04 34.75-9.89z"/></g></svg>